# xmcd CD database file
#
# Track frame offsets:
#	225
#	17327
#	42100
#	55113
#	68791
#	100484
#	107680
#	125743
#	144297
#	161793
#	177254
#	195132
#	209128
#	219737
#	242503
#
# Disc length: 3384 seconds
#
# Revision: 0
# Processed by: cddbd v1.5.2PL0 Copyright (c) Steve Scherf et al.
# Submitted via: CDex 1.70beta2
#
DISCID=d40d350f
DTITLE=Naldos Jazz Family Cologne - Hot Breeze
DYEAR=1999
DGENRE=Jazz
TTITLE0=Let Us Walk Through The Streets Of The City
TTITLE1=Breeze
TTITLE2=St Georges Rag
TTITLE3=Blues Harp Train
TTITLE4=Margie
TTITLE5=Sein Männlein steht im Walde
TTITLE6=Saratoga Swing
TTITLE7=Let Me Call You Sweetheart
TTITLE8=New Blues
TTITLE9=Jungle Jamboree
TTITLE10=Sweet Sue
TTITLE11=Creole Jazz
TTITLE12=Harlem Bound
TTITLE13=Isle Of Capri
TTITLE14=Gatemouth
EXTD=YEAR: 1999
EXTT0=
EXTT1=
EXTT2=
EXTT3=
EXTT4=
EXTT5=
EXTT6=
EXTT7=
EXTT8=
EXTT9=
EXTT10=
EXTT11=
EXTT12=
EXTT13=
EXTT14=
PLAYORDER=
